<svg width="154" height="28" viewBox="0 0 154 28" fill="none" xmlns="http://www.w3.org/2000/svg">
<path d="M49.944 22H46.49L40.044 6.38H43.3L47.656 17.468C47.92 18.238 48.074 18.788 48.184 19.316H48.25C48.36 18.788 48.514 18.238 48.8 17.468L53.156 6.38H56.412L49.944 22ZM60.923 22H58.195V6.38H61.627L69.195 16.72C69.635 17.336 70.009 17.952 70.229 18.546H70.295C70.273 17.93 70.251 17.292 70.251 16.522V6.38H72.979V22H69.745L61.979 11.55C61.539 10.912 61.187 10.318 60.945 9.768H60.901C60.923 10.362 60.923 11 60.923 11.77V22ZM90.2903 22.44C85.3623 22.44 82.3263 19.074 82.3263 14.234C82.3263 9.35 85.6043 5.94 90.9503 5.94C95.4383 5.94 97.9463 8.294 98.5843 10.846L95.5043 11.374C95.0863 9.768 93.6123 8.272 90.8623 8.272C87.4523 8.272 85.4063 10.626 85.4063 14.212C85.4063 17.688 87.3863 20.108 90.9063 20.108C94.4043 20.108 95.9223 17.82 95.9443 16.016V15.796H90.6863V13.574H98.6943V22H96.4723L96.2523 19.448C95.3063 21.23 93.2383 22.44 90.2903 22.44ZM104.104 11V13.904C104.698 11.99 106.172 10.714 108.218 10.714C108.526 10.714 108.746 10.714 109.01 10.758V13.376C108.702 13.332 108.46 13.31 108.13 13.31C106.854 13.31 106.018 13.662 105.402 14.256C104.544 15.114 104.346 16.368 104.346 17.688V22H101.552V11H104.104ZM116.309 22.33C112.437 22.33 109.753 20.13 109.753 16.5C109.753 12.87 112.437 10.67 116.309 10.67C120.203 10.67 122.865 12.87 122.865 16.5C122.865 20.13 120.203 22.33 116.309 22.33ZM116.309 20.262C118.575 20.262 119.983 18.92 119.983 16.5C119.983 14.058 118.575 12.738 116.309 12.738C114.065 12.738 112.657 14.058 112.657 16.5C112.657 18.92 114.065 20.262 116.309 20.262ZM129.617 22.33C126.405 22.33 124.887 20.614 124.887 17.512V11H127.681V17.072C127.681 19.338 128.957 20.152 130.519 20.152C132.895 20.152 134.061 18.458 134.061 16.544V11H136.855V22H134.149V19.646C133.445 21.318 131.707 22.33 129.617 22.33ZM142.959 26.29H140.165V11H142.871V13.002C143.773 11.484 145.489 10.67 147.513 10.67C150.857 10.67 153.057 12.98 153.057 16.5C153.057 19.998 150.725 22.33 147.381 22.33C145.401 22.33 143.773 21.472 142.959 20.284V26.29ZM146.523 20.24C148.767 20.24 150.153 18.832 150.153 16.478C150.153 14.146 148.811 12.738 146.589 12.738C144.389 12.738 142.893 14.102 142.893 16.258V16.742C142.893 18.854 144.345 20.24 146.523 20.24Z" fill="#111111"/>
<path d="M0 24.0877H3.96462V16.6543L0 19.8047V24.0877Z" fill="#003C97"/>
<path d="M5.48633 24.0885H9.52175V12.2658L5.48633 15.4516" fill="#003C97"/>
<path d="M11.0098 24.0877H16.1779V6.91998L11.0098 11.0969" fill="#003C97"/>
<path d="M18.2305 24.0879V2L32.0004 14.743V24.0879H27.0801V20.3712H24.0358V24.0879H18.2305Z" fill="#003C97"/>
</svg>
