<svg width="393" height="998" viewBox="0 0 393 998" fill="none" xmlns="http://www.w3.org/2000/svg">
<g clip-path="url(#clip0_193_4472)">
<rect width="393" height="998" fill="#011739"/>
<g clip-path="url(#clip1_193_4472)">
<path d="M395.2 998L0 800.398V405.198L395.2 602.798V998Z" fill="url(#paint0_linear_193_4472)"/>
<path d="M395.2 0L0 197.602V592.802L395.2 395.202V0Z" fill="url(#paint1_linear_193_4472)"/>
<g opacity="0.5">
<line x1="0.5" y1="602.8" x2="0.499991" y2="800.4" stroke="url(#paint2_linear_193_4472)"/>
<line x1="44.4111" y1="624.756" x2="44.4111" y2="822.356" stroke="url(#paint3_linear_193_4472)"/>
<line x1="88.3223" y1="646.711" x2="88.3223" y2="844.311" stroke="url(#paint4_linear_193_4472)"/>
<line x1="132.233" y1="668.667" x2="132.233" y2="866.267" stroke="url(#paint5_linear_193_4472)"/>
<line x1="176.145" y1="690.622" x2="176.145" y2="888.222" stroke="url(#paint6_linear_193_4472)"/>
<line x1="220.056" y1="712.578" x2="220.056" y2="910.178" stroke="url(#paint7_linear_193_4472)"/>
<line x1="263.967" y1="734.533" x2="263.967" y2="932.133" stroke="url(#paint8_linear_193_4472)"/>
<line x1="307.878" y1="756.489" x2="307.878" y2="954.089" stroke="url(#paint9_linear_193_4472)"/>
<line x1="351.789" y1="778.444" x2="351.789" y2="976.044" stroke="url(#paint10_linear_193_4472)"/>
</g>
<g opacity="0.5">
<line x1="0.5" y1="2.18557e-08" x2="0.499991" y2="197.6" stroke="url(#paint11_linear_193_4472)"/>
<line x1="44.4111" y1="21.9556" x2="44.4111" y2="219.556" stroke="url(#paint12_linear_193_4472)"/>
<line x1="88.3223" y1="43.9111" x2="88.3223" y2="241.511" stroke="url(#paint13_linear_193_4472)"/>
<line x1="132.233" y1="65.8667" x2="132.233" y2="263.467" stroke="url(#paint14_linear_193_4472)"/>
<line x1="176.145" y1="87.8223" x2="176.145" y2="285.422" stroke="url(#paint15_linear_193_4472)"/>
<line x1="220.056" y1="109.778" x2="220.056" y2="307.378" stroke="url(#paint16_linear_193_4472)"/>
<line x1="263.967" y1="131.733" x2="263.967" y2="329.333" stroke="url(#paint17_linear_193_4472)"/>
<line x1="307.878" y1="153.689" x2="307.878" y2="351.289" stroke="url(#paint18_linear_193_4472)"/>
<line x1="351.789" y1="175.645" x2="351.789" y2="373.245" stroke="url(#paint19_linear_193_4472)"/>
</g>
</g>
</g>
<defs>
<linearGradient id="paint0_linear_193_4472" x1="197.6" y1="998" x2="197.6" y2="405.198" gradientUnits="userSpaceOnUse">
<stop stop-color="#003C97"/>
<stop offset="1" stop-color="#001E4D"/>
</linearGradient>
<linearGradient id="paint1_linear_193_4472" x1="197.6" y1="0" x2="197.6" y2="592.802" gradientUnits="userSpaceOnUse">
<stop stop-color="#003C97"/>
<stop offset="1" stop-color="#001E4D"/>
</linearGradient>
<linearGradient id="paint2_linear_193_4472" x1="-0.5" y1="602.8" x2="-0.500009" y2="800.4" gradientUnits="userSpaceOnUse">
<stop stop-color="white"/>
<stop offset="1" stop-color="white" stop-opacity="0"/>
</linearGradient>
<linearGradient id="paint3_linear_193_4472" x1="43.4111" y1="624.756" x2="43.4111" y2="822.356" gradientUnits="userSpaceOnUse">
<stop stop-color="white"/>
<stop offset="1" stop-color="white" stop-opacity="0"/>
</linearGradient>
<linearGradient id="paint4_linear_193_4472" x1="87.3223" y1="646.711" x2="87.3223" y2="844.311" gradientUnits="userSpaceOnUse">
<stop stop-color="white"/>
<stop offset="1" stop-color="white" stop-opacity="0"/>
</linearGradient>
<linearGradient id="paint5_linear_193_4472" x1="131.233" y1="668.667" x2="131.233" y2="866.267" gradientUnits="userSpaceOnUse">
<stop stop-color="white"/>
<stop offset="1" stop-color="white" stop-opacity="0"/>
</linearGradient>
<linearGradient id="paint6_linear_193_4472" x1="175.145" y1="690.622" x2="175.145" y2="888.222" gradientUnits="userSpaceOnUse">
<stop stop-color="white"/>
<stop offset="1" stop-color="white" stop-opacity="0"/>
</linearGradient>
<linearGradient id="paint7_linear_193_4472" x1="219.056" y1="712.578" x2="219.056" y2="910.178" gradientUnits="userSpaceOnUse">
<stop stop-color="white"/>
<stop offset="1" stop-color="white" stop-opacity="0"/>
</linearGradient>
<linearGradient id="paint8_linear_193_4472" x1="262.967" y1="734.533" x2="262.967" y2="932.133" gradientUnits="userSpaceOnUse">
<stop stop-color="white"/>
<stop offset="1" stop-color="white" stop-opacity="0"/>
</linearGradient>
<linearGradient id="paint9_linear_193_4472" x1="306.878" y1="756.489" x2="306.878" y2="954.089" gradientUnits="userSpaceOnUse">
<stop stop-color="white"/>
<stop offset="1" stop-color="white" stop-opacity="0"/>
</linearGradient>
<linearGradient id="paint10_linear_193_4472" x1="350.789" y1="778.444" x2="350.789" y2="976.044" gradientUnits="userSpaceOnUse">
<stop stop-color="white"/>
<stop offset="1" stop-color="white" stop-opacity="0"/>
</linearGradient>
<linearGradient id="paint11_linear_193_4472" x1="-0.5" y1="-2.18557e-08" x2="-0.500009" y2="197.6" gradientUnits="userSpaceOnUse">
<stop stop-color="white"/>
<stop offset="1" stop-color="white" stop-opacity="0"/>
</linearGradient>
<linearGradient id="paint12_linear_193_4472" x1="43.4111" y1="21.9556" x2="43.4111" y2="219.556" gradientUnits="userSpaceOnUse">
<stop stop-color="white"/>
<stop offset="1" stop-color="white" stop-opacity="0"/>
</linearGradient>
<linearGradient id="paint13_linear_193_4472" x1="87.3223" y1="43.9111" x2="87.3223" y2="241.511" gradientUnits="userSpaceOnUse">
<stop stop-color="white"/>
<stop offset="1" stop-color="white" stop-opacity="0"/>
</linearGradient>
<linearGradient id="paint14_linear_193_4472" x1="131.233" y1="65.8667" x2="131.233" y2="263.467" gradientUnits="userSpaceOnUse">
<stop stop-color="white"/>
<stop offset="1" stop-color="white" stop-opacity="0"/>
</linearGradient>
<linearGradient id="paint15_linear_193_4472" x1="175.145" y1="87.8223" x2="175.145" y2="285.422" gradientUnits="userSpaceOnUse">
<stop stop-color="white"/>
<stop offset="1" stop-color="white" stop-opacity="0"/>
</linearGradient>
<linearGradient id="paint16_linear_193_4472" x1="219.056" y1="109.778" x2="219.056" y2="307.378" gradientUnits="userSpaceOnUse">
<stop stop-color="white"/>
<stop offset="1" stop-color="white" stop-opacity="0"/>
</linearGradient>
<linearGradient id="paint17_linear_193_4472" x1="262.967" y1="131.733" x2="262.967" y2="329.333" gradientUnits="userSpaceOnUse">
<stop stop-color="white"/>
<stop offset="1" stop-color="white" stop-opacity="0"/>
</linearGradient>
<linearGradient id="paint18_linear_193_4472" x1="306.878" y1="153.689" x2="306.878" y2="351.289" gradientUnits="userSpaceOnUse">
<stop stop-color="white"/>
<stop offset="1" stop-color="white" stop-opacity="0"/>
</linearGradient>
<linearGradient id="paint19_linear_193_4472" x1="350.789" y1="175.645" x2="350.789" y2="373.245" gradientUnits="userSpaceOnUse">
<stop stop-color="white"/>
<stop offset="1" stop-color="white" stop-opacity="0"/>
</linearGradient>
<clipPath id="clip0_193_4472">
<rect width="393" height="998" fill="white"/>
</clipPath>
<clipPath id="clip1_193_4472">
<rect width="393" height="1315" fill="white"/>
</clipPath>
</defs>
</svg>
