<svg width="1440" height="900" viewBox="0 0 1440 900" fill="none" xmlns="http://www.w3.org/2000/svg">
<g clip-path="url(#clip0_20_5028)">
<rect width="1440" height="900" fill="#011739"/>
<g clip-path="url(#clip1_20_5028)">
<path d="M720 900L360 719.999V359.999L720 539.999V900Z" fill="url(#paint0_linear_20_5028)"/>
<path d="M720 900L360 719.999V359.999L720 539.999V900Z" fill="#003C97"/>
<path d="M360 0L0 180.001V540.001L360 360.001V0Z" fill="url(#paint1_linear_20_5028)"/>
<path d="M360 0L0 180.001V540.001L360 360.001V0Z" fill="#003C97"/>
<path d="M1440 540L720 900V540L1440 180V540Z" fill="url(#paint2_linear_20_5028)"/>
<path d="M1440 540L720 900V540L1440 180V540Z" fill="#003C97"/>
<path d="M1440 540L720 900V540L1440 180V540Z" fill="black" fill-opacity="0.2"/>
<g opacity="0.5">
<line x1="360.5" y1="540" x2="360.5" y2="720" stroke="url(#paint3_linear_20_5028)"/>
<line x1="400.5" y1="560" x2="400.5" y2="740" stroke="url(#paint4_linear_20_5028)"/>
<line x1="440.5" y1="580" x2="440.5" y2="760" stroke="url(#paint5_linear_20_5028)"/>
<line x1="480.5" y1="600" x2="480.5" y2="780" stroke="url(#paint6_linear_20_5028)"/>
<line x1="520.5" y1="620" x2="520.5" y2="800" stroke="url(#paint7_linear_20_5028)"/>
<line x1="560.5" y1="640" x2="560.5" y2="820" stroke="url(#paint8_linear_20_5028)"/>
<line x1="600.5" y1="660" x2="600.5" y2="840" stroke="url(#paint9_linear_20_5028)"/>
<line x1="640.5" y1="680" x2="640.5" y2="860" stroke="url(#paint10_linear_20_5028)"/>
<line x1="680.5" y1="700" x2="680.5" y2="880" stroke="url(#paint11_linear_20_5028)"/>
<line x1="720.5" y1="720" x2="720.5" y2="900" stroke="url(#paint12_linear_20_5028)"/>
</g>
<g opacity="0.5">
<line x1="0.5" y1="2.18557e-08" x2="0.499992" y2="180" stroke="url(#paint13_linear_20_5028)"/>
<line x1="40.5" y1="20" x2="40.5" y2="200" stroke="url(#paint14_linear_20_5028)"/>
<line x1="80.5" y1="40" x2="80.5" y2="220" stroke="url(#paint15_linear_20_5028)"/>
<line x1="120.5" y1="60" x2="120.5" y2="240" stroke="url(#paint16_linear_20_5028)"/>
<line x1="160.5" y1="80" x2="160.5" y2="260" stroke="url(#paint17_linear_20_5028)"/>
<line x1="200.5" y1="100" x2="200.5" y2="280" stroke="url(#paint18_linear_20_5028)"/>
<line x1="240.5" y1="120" x2="240.5" y2="300" stroke="url(#paint19_linear_20_5028)"/>
<line x1="280.5" y1="140" x2="280.5" y2="320" stroke="url(#paint20_linear_20_5028)"/>
<line x1="320.5" y1="160" x2="320.5" y2="340" stroke="url(#paint21_linear_20_5028)"/>
<line x1="360.5" y1="180" x2="360.5" y2="360" stroke="url(#paint22_linear_20_5028)"/>
</g>
<g opacity="0.5">
<line y1="-0.5" x2="180" y2="-0.5" transform="matrix(4.37114e-08 1 1 -4.37114e-08 1080 540)" stroke="url(#paint23_linear_20_5028)"/>
<line y1="-0.5" x2="180" y2="-0.5" transform="matrix(4.37114e-08 1 1 -4.37114e-08 1040 560)" stroke="url(#paint24_linear_20_5028)"/>
<line y1="-0.5" x2="180" y2="-0.5" transform="matrix(4.37114e-08 1 1 -4.37114e-08 1000 580)" stroke="url(#paint25_linear_20_5028)"/>
<line y1="-0.5" x2="180" y2="-0.5" transform="matrix(4.37114e-08 1 1 -4.37114e-08 960 600)" stroke="url(#paint26_linear_20_5028)"/>
<line y1="-0.5" x2="180" y2="-0.5" transform="matrix(4.37114e-08 1 1 -4.37114e-08 920 620)" stroke="url(#paint27_linear_20_5028)"/>
<line y1="-0.5" x2="180" y2="-0.5" transform="matrix(4.37114e-08 1 1 -4.37114e-08 880 640)" stroke="url(#paint28_linear_20_5028)"/>
<line y1="-0.5" x2="180" y2="-0.5" transform="matrix(4.37114e-08 1 1 -4.37114e-08 840 660)" stroke="url(#paint29_linear_20_5028)"/>
<line y1="-0.5" x2="180" y2="-0.5" transform="matrix(4.37114e-08 1 1 -4.37114e-08 800 680)" stroke="url(#paint30_linear_20_5028)"/>
<line y1="-0.5" x2="180" y2="-0.5" transform="matrix(4.37114e-08 1 1 -4.37114e-08 760 700)" stroke="url(#paint31_linear_20_5028)"/>
<line y1="-0.5" x2="180" y2="-0.5" transform="matrix(4.37114e-08 1 1 -4.37114e-08 1440 360)" stroke="url(#paint32_linear_20_5028)"/>
<line y1="-0.5" x2="180" y2="-0.5" transform="matrix(4.37114e-08 1 1 -4.37114e-08 1400 380)" stroke="url(#paint33_linear_20_5028)"/>
<line y1="-0.5" x2="180" y2="-0.5" transform="matrix(4.37114e-08 1 1 -4.37114e-08 1360 400)" stroke="url(#paint34_linear_20_5028)"/>
<line y1="-0.5" x2="180" y2="-0.5" transform="matrix(4.37114e-08 1 1 -4.37114e-08 1320 420)" stroke="url(#paint35_linear_20_5028)"/>
<line y1="-0.5" x2="180" y2="-0.5" transform="matrix(4.37114e-08 1 1 -4.37114e-08 1280 440)" stroke="url(#paint36_linear_20_5028)"/>
<line y1="-0.5" x2="180" y2="-0.5" transform="matrix(4.37114e-08 1 1 -4.37114e-08 1240 460)" stroke="url(#paint37_linear_20_5028)"/>
<line y1="-0.5" x2="180" y2="-0.5" transform="matrix(4.37114e-08 1 1 -4.37114e-08 1200 480)" stroke="url(#paint38_linear_20_5028)"/>
<line y1="-0.5" x2="180" y2="-0.5" transform="matrix(4.37114e-08 1 1 -4.37114e-08 1160 500)" stroke="url(#paint39_linear_20_5028)"/>
<line y1="-0.5" x2="180" y2="-0.5" transform="matrix(4.37114e-08 1 1 -4.37114e-08 1120 520)" stroke="url(#paint40_linear_20_5028)"/>
</g>
</g>
</g>
<defs>
<linearGradient id="paint0_linear_20_5028" x1="540" y1="900" x2="540" y2="359.999" gradientUnits="userSpaceOnUse">
<stop stop-color="#003C97"/>
<stop offset="1" stop-color="#001E4D"/>
</linearGradient>
<linearGradient id="paint1_linear_20_5028" x1="180" y1="0" x2="180" y2="540.001" gradientUnits="userSpaceOnUse">
<stop stop-color="#003C97"/>
<stop offset="1" stop-color="#001E4D"/>
</linearGradient>
<linearGradient id="paint2_linear_20_5028" x1="1080" y1="180" x2="1080" y2="900" gradientUnits="userSpaceOnUse">
<stop stop-color="#003C97"/>
<stop offset="1" stop-color="#001E4D"/>
</linearGradient>
<linearGradient id="paint3_linear_20_5028" x1="359.5" y1="540" x2="359.5" y2="720" gradientUnits="userSpaceOnUse">
<stop stop-color="white"/>
<stop offset="1" stop-color="white" stop-opacity="0"/>
</linearGradient>
<linearGradient id="paint4_linear_20_5028" x1="399.5" y1="560" x2="399.5" y2="740" gradientUnits="userSpaceOnUse">
<stop stop-color="white"/>
<stop offset="1" stop-color="white" stop-opacity="0"/>
</linearGradient>
<linearGradient id="paint5_linear_20_5028" x1="439.5" y1="580" x2="439.5" y2="760" gradientUnits="userSpaceOnUse">
<stop stop-color="white"/>
<stop offset="1" stop-color="white" stop-opacity="0"/>
</linearGradient>
<linearGradient id="paint6_linear_20_5028" x1="479.5" y1="600" x2="479.5" y2="780" gradientUnits="userSpaceOnUse">
<stop stop-color="white"/>
<stop offset="1" stop-color="white" stop-opacity="0"/>
</linearGradient>
<linearGradient id="paint7_linear_20_5028" x1="519.5" y1="620" x2="519.5" y2="800" gradientUnits="userSpaceOnUse">
<stop stop-color="white"/>
<stop offset="1" stop-color="white" stop-opacity="0"/>
</linearGradient>
<linearGradient id="paint8_linear_20_5028" x1="559.5" y1="640" x2="559.5" y2="820" gradientUnits="userSpaceOnUse">
<stop stop-color="white"/>
<stop offset="1" stop-color="white" stop-opacity="0"/>
</linearGradient>
<linearGradient id="paint9_linear_20_5028" x1="599.5" y1="660" x2="599.5" y2="840" gradientUnits="userSpaceOnUse">
<stop stop-color="white"/>
<stop offset="1" stop-color="white" stop-opacity="0"/>
</linearGradient>
<linearGradient id="paint10_linear_20_5028" x1="639.5" y1="680" x2="639.5" y2="860" gradientUnits="userSpaceOnUse">
<stop stop-color="white"/>
<stop offset="1" stop-color="white" stop-opacity="0"/>
</linearGradient>
<linearGradient id="paint11_linear_20_5028" x1="679.5" y1="700" x2="679.5" y2="880" gradientUnits="userSpaceOnUse">
<stop stop-color="white"/>
<stop offset="1" stop-color="white" stop-opacity="0"/>
</linearGradient>
<linearGradient id="paint12_linear_20_5028" x1="719.5" y1="720" x2="719.5" y2="900" gradientUnits="userSpaceOnUse">
<stop stop-color="white"/>
<stop offset="1" stop-color="white" stop-opacity="0"/>
</linearGradient>
<linearGradient id="paint13_linear_20_5028" x1="-0.5" y1="-2.18557e-08" x2="-0.500008" y2="180" gradientUnits="userSpaceOnUse">
<stop stop-color="white"/>
<stop offset="1" stop-color="white" stop-opacity="0"/>
</linearGradient>
<linearGradient id="paint14_linear_20_5028" x1="39.5" y1="20" x2="39.5" y2="200" gradientUnits="userSpaceOnUse">
<stop stop-color="white"/>
<stop offset="1" stop-color="white" stop-opacity="0"/>
</linearGradient>
<linearGradient id="paint15_linear_20_5028" x1="79.5" y1="40" x2="79.5" y2="220" gradientUnits="userSpaceOnUse">
<stop stop-color="white"/>
<stop offset="1" stop-color="white" stop-opacity="0"/>
</linearGradient>
<linearGradient id="paint16_linear_20_5028" x1="119.5" y1="60" x2="119.5" y2="240" gradientUnits="userSpaceOnUse">
<stop stop-color="white"/>
<stop offset="1" stop-color="white" stop-opacity="0"/>
</linearGradient>
<linearGradient id="paint17_linear_20_5028" x1="159.5" y1="80" x2="159.5" y2="260" gradientUnits="userSpaceOnUse">
<stop stop-color="white"/>
<stop offset="1" stop-color="white" stop-opacity="0"/>
</linearGradient>
<linearGradient id="paint18_linear_20_5028" x1="199.5" y1="100" x2="199.5" y2="280" gradientUnits="userSpaceOnUse">
<stop stop-color="white"/>
<stop offset="1" stop-color="white" stop-opacity="0"/>
</linearGradient>
<linearGradient id="paint19_linear_20_5028" x1="239.5" y1="120" x2="239.5" y2="300" gradientUnits="userSpaceOnUse">
<stop stop-color="white"/>
<stop offset="1" stop-color="white" stop-opacity="0"/>
</linearGradient>
<linearGradient id="paint20_linear_20_5028" x1="279.5" y1="140" x2="279.5" y2="320" gradientUnits="userSpaceOnUse">
<stop stop-color="white"/>
<stop offset="1" stop-color="white" stop-opacity="0"/>
</linearGradient>
<linearGradient id="paint21_linear_20_5028" x1="319.5" y1="160" x2="319.5" y2="340" gradientUnits="userSpaceOnUse">
<stop stop-color="white"/>
<stop offset="1" stop-color="white" stop-opacity="0"/>
</linearGradient>
<linearGradient id="paint22_linear_20_5028" x1="359.5" y1="180" x2="359.5" y2="360" gradientUnits="userSpaceOnUse">
<stop stop-color="white"/>
<stop offset="1" stop-color="white" stop-opacity="0"/>
</linearGradient>
<linearGradient id="paint23_linear_20_5028" x1="0" y1="0.5" x2="180" y2="0.5" gradientUnits="userSpaceOnUse">
<stop stop-color="white"/>
<stop offset="1" stop-color="white" stop-opacity="0"/>
</linearGradient>
<linearGradient id="paint24_linear_20_5028" x1="0" y1="0.5" x2="180" y2="0.5" gradientUnits="userSpaceOnUse">
<stop stop-color="white"/>
<stop offset="1" stop-color="white" stop-opacity="0"/>
</linearGradient>
<linearGradient id="paint25_linear_20_5028" x1="0" y1="0.5" x2="180" y2="0.5" gradientUnits="userSpaceOnUse">
<stop stop-color="white"/>
<stop offset="1" stop-color="white" stop-opacity="0"/>
</linearGradient>
<linearGradient id="paint26_linear_20_5028" x1="0" y1="0.5" x2="180" y2="0.5" gradientUnits="userSpaceOnUse">
<stop stop-color="white"/>
<stop offset="1" stop-color="white" stop-opacity="0"/>
</linearGradient>
<linearGradient id="paint27_linear_20_5028" x1="0" y1="0.5" x2="180" y2="0.5" gradientUnits="userSpaceOnUse">
<stop stop-color="white"/>
<stop offset="1" stop-color="white" stop-opacity="0"/>
</linearGradient>
<linearGradient id="paint28_linear_20_5028" x1="0" y1="0.5" x2="180" y2="0.5" gradientUnits="userSpaceOnUse">
<stop stop-color="white"/>
<stop offset="1" stop-color="white" stop-opacity="0"/>
</linearGradient>
<linearGradient id="paint29_linear_20_5028" x1="0" y1="0.5" x2="180" y2="0.5" gradientUnits="userSpaceOnUse">
<stop stop-color="white"/>
<stop offset="1" stop-color="white" stop-opacity="0"/>
</linearGradient>
<linearGradient id="paint30_linear_20_5028" x1="0" y1="0.5" x2="180" y2="0.5" gradientUnits="userSpaceOnUse">
<stop stop-color="white"/>
<stop offset="1" stop-color="white" stop-opacity="0"/>
</linearGradient>
<linearGradient id="paint31_linear_20_5028" x1="0" y1="0.5" x2="180" y2="0.5" gradientUnits="userSpaceOnUse">
<stop stop-color="white"/>
<stop offset="1" stop-color="white" stop-opacity="0"/>
</linearGradient>
<linearGradient id="paint32_linear_20_5028" x1="0" y1="0.5" x2="180" y2="0.5" gradientUnits="userSpaceOnUse">
<stop stop-color="white"/>
<stop offset="1" stop-color="white" stop-opacity="0"/>
</linearGradient>
<linearGradient id="paint33_linear_20_5028" x1="0" y1="0.5" x2="180" y2="0.5" gradientUnits="userSpaceOnUse">
<stop stop-color="white"/>
<stop offset="1" stop-color="white" stop-opacity="0"/>
</linearGradient>
<linearGradient id="paint34_linear_20_5028" x1="0" y1="0.5" x2="180" y2="0.5" gradientUnits="userSpaceOnUse">
<stop stop-color="white"/>
<stop offset="1" stop-color="white" stop-opacity="0"/>
</linearGradient>
<linearGradient id="paint35_linear_20_5028" x1="0" y1="0.5" x2="180" y2="0.5" gradientUnits="userSpaceOnUse">
<stop stop-color="white"/>
<stop offset="1" stop-color="white" stop-opacity="0"/>
</linearGradient>
<linearGradient id="paint36_linear_20_5028" x1="0" y1="0.5" x2="180" y2="0.5" gradientUnits="userSpaceOnUse">
<stop stop-color="white"/>
<stop offset="1" stop-color="white" stop-opacity="0"/>
</linearGradient>
<linearGradient id="paint37_linear_20_5028" x1="0" y1="0.5" x2="180" y2="0.5" gradientUnits="userSpaceOnUse">
<stop stop-color="white"/>
<stop offset="1" stop-color="white" stop-opacity="0"/>
</linearGradient>
<linearGradient id="paint38_linear_20_5028" x1="0" y1="0.5" x2="180" y2="0.5" gradientUnits="userSpaceOnUse">
<stop stop-color="white"/>
<stop offset="1" stop-color="white" stop-opacity="0"/>
</linearGradient>
<linearGradient id="paint39_linear_20_5028" x1="0" y1="0.5" x2="180" y2="0.5" gradientUnits="userSpaceOnUse">
<stop stop-color="white"/>
<stop offset="1" stop-color="white" stop-opacity="0"/>
</linearGradient>
<linearGradient id="paint40_linear_20_5028" x1="0" y1="0.5" x2="180" y2="0.5" gradientUnits="userSpaceOnUse">
<stop stop-color="white"/>
<stop offset="1" stop-color="white" stop-opacity="0"/>
</linearGradient>
<clipPath id="clip0_20_5028">
<rect width="1440" height="900" fill="white"/>
</clipPath>
<clipPath id="clip1_20_5028">
<rect width="1440" height="900" fill="white"/>
</clipPath>
</defs>
</svg>
