<svg xmlns="http://www.w3.org/2000/svg" width="200" height="200" viewBox="0 0 200 200" fill="none">
  <mask id="mask0_20_5304" style="mask-type:luminance" maskUnits="userSpaceOnUse" x="0" y="0" width="200" height="200">
    <path d="M200 0H0V200H200V0Z" fill="white"/>
  </mask>
  <g mask="url(#mask0_20_5304)">
    <path d="M71.84 65.28V65.96C72.56 74 74.72 80.12 78.36 84.36L78.76 84.8L79.16 85.24C82.72 89 87.72 91.28 94.24 92.04L82.64 80.44C82 79.8 82 78.72 82.64 78.08C83.24 77.48 84.2 77.44 84.84 77.96L85 78.08L96.52 89.6C96.84 83.36 95.08 78.24 91.28 74.04C87.12 69.44 81.12 66.56 73.12 65.48L72.3199 65.36H71.88L71.84 65.28ZM127.88 65.28H127.44C119.04 66.36 112.76 69.24 108.48 74C104.96 77.92 103.2 82.64 103.2 88.28L113.4 78.08C114.04 77.44 115.12 77.44 115.76 78.08C116.36 78.68 116.4 79.64 115.88 80.28L115.76 80.44L104 92.2H104.56C111.52 91.48 116.84 89.16 120.56 85.24L120.96 84.8C124.8 80.52 127.12 74.28 127.8 65.96V65.28H127.88ZM131.36 61.68C131.16 72.92 128.52 81.4 123.44 87.04C118.48 92.52 111.16 95.4 101.52 95.68V131.68C101.52 132.6 100.76 133.36 99.84 133.36C99 133.36 98.28 132.72 98.2 131.88V131.68V95.68C88.52 95.44 81.24 92.56 76.28 87.04C71.2 81.4 68.56 72.92 68.36 61.68C79.68 62.2 88.12 65.56 93.72 71.8C96.56 74.92 98.4 78.52 99.28 82.52C99.44 82.44 99.64 82.4 99.88 82.4C100.12 82.4 100.28 82.4 100.48 82.52C101.36 78.48 103.2 74.92 106.04 71.8C111.64 65.6 120.12 62.2 131.4 61.68H131.36ZM176.68 23.36H23.36V176.68H176.68V23.36ZM180 20.04V180.04H20V20H180V20.04Z" fill="white" fill-opacity="0.5"/>
    <path d="M100 36.68C74.2404 36.68 53.3203 57.56 53.3203 83.36C53.3203 100.48 62.6404 115.96 77.2804 124.16L77.9603 124.52L79.7203 125.48V130.88H120.28V125.48L122.04 124.52C137.08 116.44 146.68 100.76 146.68 83.36C146.68 57.6 125.8 36.68 100 36.68ZM120.28 134.2H79.7203V139.2H120.28V134.2ZM120.28 142.52H79.7203V147.52H120.28V142.52ZM120.28 150.84H79.7203V155H120.28V150.84ZM108.32 158.36H93.3203C92.4003 158.36 91.6404 159.12 91.6404 160.04V163.36C91.6404 164.28 92.4003 165.04 93.3203 165.04H108.32C109.24 165.04 110 164.28 110 163.36V160.04C110 159.12 109.24 158.36 108.32 158.36ZM100 33.36C127.6 33.36 150 55.76 150 83.36C150 102.44 139.32 119 123.6 127.44V130.84H125.96C126.88 130.84 127.64 131.6 127.64 132.52C127.64 133.36 127 134.08 126.16 134.16H125.96H123.6V139.16H125.96C126.88 139.16 127.64 139.92 127.64 140.84C127.64 141.68 127 142.4 126.16 142.48H125.96H123.6V147.48H125.96C126.88 147.48 127.64 148.24 127.64 149.16C127.64 150 127 150.72 126.16 150.8H125.96H123.6V158.32H113.04C113.24 158.84 113.32 159.4 113.32 160V163.32C113.32 166.08 111.08 168.32 108.32 168.32H93.3203C90.5603 168.32 88.3203 166.08 88.3203 163.32V160C88.3203 159.4 88.4403 158.84 88.6003 158.32H76.3604V150.8H74.0004C73.0804 150.8 72.3203 150.04 72.3203 149.12C72.3203 148.28 72.9604 147.56 73.8004 147.48H74.0004H76.3604V142.48H74.0004C73.0804 142.48 72.3203 141.72 72.3203 140.8C72.3203 139.96 72.9604 139.24 73.8004 139.16H74.0004H76.3604V134.16H74.0004C73.0804 134.16 72.3203 133.4 72.3203 132.48C72.3203 131.64 72.9604 130.92 73.8004 130.84H74.0004H76.3604V127.44C60.6404 119 49.9603 102.44 49.9603 83.36C49.9603 55.76 72.3603 33.36 99.9603 33.36H100ZM188.32 11.68H11.6404V188.36H188.32V11.68ZM191.64 8.35999V191.68H8.32031V8.35999H191.64Z" fill="white"/>
  </g>
</svg>