<svg xmlns="http://www.w3.org/2000/svg" width="200" height="200" viewBox="0 0 200 200" fill="none">
  <mask id="mask0_20_5187" style="mask-type:luminance" maskUnits="userSpaceOnUse" x="0" y="0" width="200" height="200">
    <path d="M200 0H0V200H200V0Z" fill="white"/>
  </mask>
  <g mask="url(#mask0_20_5187)">
    <path d="M196.68 18.3598V21.6798H63.3602V34.9998H196.68V38.3198H60.0002V18.3198H196.68V18.3598ZM188.4 83.3198H146.64V141.72H188.4V83.3198ZM191.64 80.0798V145H143.4V80.0798H191.64ZM133.4 51.6798H71.6402V170.08H133.4V51.6798ZM136.64 48.4398V173.36H68.4002V48.3998H136.64V48.4398ZM196.68 40.1198V43.3598H63.3202V178.4H183.36H196.68V181.64H183.36H1.68018V178.32H60.0402V40.0398H196.68V40.1198Z" fill="white"/>
    <path d="M55.0001 57.5199H10.0001V67.5199H55.0001V57.5199ZM184.16 75.8399V150.84H180.84V75.8399H184.16ZM176.64 75.8399V150.84H173.32V75.8399H176.64ZM169.12 75.8399V150.84H165.8V75.8399H169.12ZM160.8 75.8399V150.84H157.48V75.8399H160.8ZM154.12 75.8399V150.84H150.8V75.8399H154.12ZM128.32 56.6399H118.64L97.9601 72.1599L95.9601 69.4799L113.08 56.5999H76.5601V116.28L89.6001 106L91.6801 108.6L76.5601 120.52V165.04H128.32V122.32L109.4 136.76L107.36 134.12L128.28 118.12V56.6399H128.32ZM131.56 53.3999V168.32H73.3201V53.3999H131.56ZM13.2802 70.8799H9.96014V174.2H13.2802V70.8799ZM58.2802 54.1999V70.8799H16.6001V177.56H6.6001V54.2399H58.2802V54.1999Z" fill="white" fill-opacity="0.5"/>
  </g>
</svg>