<svg xmlns="http://www.w3.org/2000/svg" width="200" height="200" viewBox="0 0 200 200" fill="none">
  <mask id="mask0_20_5128" style="mask-type:luminance" maskUnits="userSpaceOnUse" x="0" y="0" width="200" height="200">
    <path d="M200 0H0V200H200V0Z" fill="white"/>
  </mask>
  <g mask="url(#mask0_20_5128)">
    <path d="M31.16 95.1202C32.08 95.1202 32.8 95.8402 32.8 96.7602C32.8 97.6002 32.16 98.2802 31.36 98.4002H31.16H20.68C19.76 98.4002 19.04 97.6802 19.04 96.7602C19.04 95.9202 19.68 95.2402 20.48 95.1202H20.68H31.16ZM101.44 84.6002V91.1602H108.16V94.4402H101.44V101H98.16V94.4402H91.8V91.1602H98.16V84.6002H101.44ZM76 21.7602H12.24V175.84H76V21.7202V21.7602ZM79.28 18.4802V179.12H9V18.4402H79.28V18.4802ZM85 11.5202H3.28V185.28H85V11.4802V11.5202ZM88.28 8.2402V188.56H0V8.2002H88.28V8.2402Z" fill="white"/>
    <path d="M192.76 8.2002V11.4802H186.2V8.2002H192.76ZM182.28 8.2002V11.4802H175.72V8.2002H182.28ZM171.8 8.2002V11.4802H165.24V8.2002H171.8ZM161.32 8.2002V11.4802H154.76V8.2002H161.32ZM150.84 8.2002V11.4802H144.28V8.2002H150.84ZM140.36 8.2002V11.4802H133.8V8.2002H140.36ZM129.88 8.2002V11.4802H123.32V8.2002H129.88ZM119.4 8.2002V11.4802H112.84V8.2002H119.4ZM200.04 8.2002V14.7602H196.76V8.2002H200.04ZM114.8 14.1202V20.6802H111.52V14.1202H114.8ZM200.04 18.7202V25.2802H196.76V18.7202H200.04ZM187.76 21.4002H123.84V28.7602H187.76V21.4002ZM114.8 24.6402V31.2002H111.52V24.6402H114.8ZM200.04 29.2402V35.8002H196.76V29.2402H200.04ZM114.8 35.1602V41.7202H111.52V35.1602H114.8ZM200.04 39.7602V46.3202H196.76V39.7602H200.04ZM114.8 45.6802V52.2402H111.52V45.6802H114.8ZM200.04 50.2802V56.8402H196.76V50.2802H200.04ZM114.8 56.2002V62.7602H111.52V56.2002H114.8ZM200.04 60.8002V67.3602H196.76V60.8002H200.04ZM114.8 66.7202V73.2802H111.52V66.7202H114.8ZM200.04 71.3202V77.8802H196.76V71.3202H200.04ZM114.8 77.2402V83.8002H111.52V77.2402H114.8ZM200.04 81.8402V88.4002H196.76V81.8402H200.04ZM114.8 87.7602V94.3202H111.52V87.7602H114.8ZM200.04 92.3602V98.9202H196.76V92.3602H200.04ZM114.8 98.2802V104.84H111.52V98.2802H114.8ZM200.04 102.88V109.44H196.76V102.88H200.04ZM151.8 32.2802H123.8V86.0402L141.76 68.0802L144.08 70.4002L123.8 90.6802V110.04H187.72V64.7202L161.28 91.1602L158.96 88.8402L187.72 60.0802V32.2402H156.44L136.16 52.5202L133.84 50.2002L151.8 32.2402V32.2802ZM191 18.3602V113.36H120.52V18.0802H191V18.3602ZM114.76 108.8V115.36H111.48V108.8H114.76ZM200 113.4V119.96H196.72V113.4H200ZM114.76 119.32V125.88H111.48V119.32H114.76ZM200 123.92V130.48H196.72V123.92H200ZM114.76 129.84V136.4H111.48V129.84H114.76ZM200 134.44V141H196.72V134.44H200ZM114.76 140.36V146.92H111.48V140.36H114.76ZM200 144.96V151.52H196.72V144.96H200ZM114.76 150.88V157.44H111.48V150.88H114.76ZM200 155.48V162.04H196.72V155.48H200ZM114.76 161.4V167.96H111.48V161.4H114.76ZM200 166V172.56H196.72V166H200ZM114.76 171.92V178.48H111.48V171.92H114.76ZM200 176.52V183.08H196.72V176.52H200ZM114.76 182.44V189H111.48V182.44H114.76ZM198.68 185.72V189H192.12V185.72H198.68ZM188.2 185.72V189H181.64V185.72H188.2ZM177.72 185.72V189H171.16V185.72H177.72ZM156.72 185.72V189H150.16V185.72H156.72ZM146.24 185.72V189H139.68V185.72H146.24ZM135.76 185.72V189H129.2V185.72H135.76ZM125.28 185.72V189H118.72V185.72H125.28ZM167.24 185.72V189H160.68V185.72H167.24Z" fill="white" fill-opacity="0.5"/>
  </g>
</svg>