<svg xmlns="http://www.w3.org/2000/svg" width="200" height="200" viewBox="0 0 200 200" fill="none">
  <mask id="mask0_20_5365" style="mask-type:luminance" maskUnits="userSpaceOnUse" x="0" y="0" width="200" height="200">
    <path d="M200 0H0V200H200V0Z" fill="white"/>
  </mask>
  <g mask="url(#mask0_20_5365)">
    <path d="M37.84 40.68H36.2L35.36 42.08L36.36 42.72C37.16 42.64 37.8 41.92 37.8 41.08V40.68H37.84ZM34.56 40.68C34.56 39.4 35.96 38.6 37.04 39.28L38.12 39.92C38.88 40.4 39.12 41.4 38.68 42.16C38.2 42.92 37.2 43.16 36.44 42.68H36.4H36.24C35.4 42.68 34.72 42.04 34.6 41.24V41.04V40.64L34.56 40.68ZM40.08 43.04C40.56 42.28 41.56 42.04 42.32 42.52L43.72 43.36C44.48 43.84 44.72 44.84 44.28 45.6C43.84 46.36 42.8 46.6 42.04 46.12L40.64 45.28C39.88 44.8 39.64 43.8 40.08 43.04ZM36.2 44.36C37.12 44.36 37.84 45.08 37.84 46V47.64C37.84 48.56 37.12 49.28 36.2 49.28C35.28 49.28 34.56 48.56 34.56 47.64V46C34.56 45.08 35.28 44.36 36.2 44.36ZM45.64 46.48C46.12 45.72 47.12 45.48 47.88 45.96L49.28 46.8C50.04 47.28 50.28 48.28 49.84 49.04C49.36 49.8 48.36 50.04 47.6 49.56L46.2 48.72C45.44 48.24 45.2 47.24 45.64 46.48ZM51.24 49.92C51.72 49.16 52.72 48.92 53.48 49.4L54.88 50.24C55.64 50.72 55.88 51.72 55.44 52.48C54.96 53.24 53.96 53.48 53.2 53L51.8 52.16C51.04 51.68 50.8 50.68 51.24 49.92ZM36.2 50.92C37.12 50.92 37.84 51.64 37.84 52.56V54.2C37.84 55.12 37.12 55.84 36.2 55.84C35.28 55.84 34.56 55.12 34.56 54.2V52.56C34.56 51.64 35.28 50.92 36.2 50.92ZM56.84 53.36C57.32 52.6 58.32 52.36 59.08 52.84L60.48 53.68C61.24 54.16 61.48 55.16 61.04 55.92C60.56 56.68 59.56 56.92 58.8 56.44L57.4 55.6C56.64 55.12 56.4 54.12 56.84 53.36ZM62.44 56.8C62.92 56.04 63.92 55.8 64.68 56.28L66.08 57.12C66.84 57.6 67.08 58.6 66.64 59.36C66.16 60.12 65.16 60.36 64.4 59.88L63 59.04C62.24 58.56 62 57.56 62.44 56.8ZM36.2 57.48C37.12 57.48 37.84 58.2 37.84 59.12V60.76C37.84 61.68 37.12 62.4 36.2 62.4C35.28 62.4 34.56 61.68 34.56 60.76V59.12C34.56 58.2 35.28 57.48 36.2 57.48ZM68.04 60.2C68.52 59.44 69.52 59.2 70.28 59.68L71.68 60.52C72.44 61 72.68 62 72.24 62.76C71.76 63.52 70.76 63.76 70 63.28L68.6 62.44C67.84 61.96 67.6 60.96 68.04 60.2ZM73.64 63.64C74.12 62.88 75.12 62.64 75.88 63.12L77.28 63.96C78.04 64.44 78.28 65.44 77.84 66.2C77.36 66.96 76.36 67.2 75.6 66.72L74.2 65.88C73.44 65.4 73.2 64.4 73.64 63.64ZM36.2 64.04C37.12 64.04 37.84 64.76 37.84 65.68V67.32C37.84 68.24 37.12 68.96 36.2 68.96C35.28 68.96 34.56 68.24 34.56 67.32V65.68C34.56 64.76 35.28 64.04 36.2 64.04ZM79.24 67.08C79.72 66.32 80.72 66.08 81.48 66.56L82.88 67.4C83.64 67.88 83.88 68.88 83.44 69.64C82.96 70.4 81.96 70.64 81.2 70.16L79.8 69.32C79.04 68.84 78.8 67.84 79.24 67.08ZM84.84 70.52C85.32 69.76 86.32 69.52 87.08 70L88.48 70.84C89.24 71.32 89.48 72.32 89.04 73.08C88.56 73.84 87.56 74.08 86.8 73.6L85.4 72.76C84.64 72.28 84.4 71.28 84.84 70.52ZM36.24 70.6C37.16 70.6 37.88 71.32 37.88 72.24V73.88C37.88 74.8 37.16 75.52 36.24 75.52C35.32 75.52 34.6 74.8 34.6 73.88V72.24C34.6 71.32 35.32 70.6 36.24 70.6ZM90.44 73.92C90.92 73.16 91.92 72.92 92.68 73.4L94.08 74.24C94.84 74.72 95.08 75.72 94.64 76.48C94.16 77.24 93.16 77.48 92.4 77L91 76.16C90.24 75.68 90 74.68 90.44 73.92ZM96.04 77.36C96.52 76.6 97.52 76.36 98.28 76.84L99.68 77.68C100.44 78.16 100.68 79.16 100.24 79.92C99.76 80.68 98.76 80.92 98 80.44L96.6 79.6C95.84 79.12 95.6 78.12 96.04 77.36ZM36.24 77.16C37.16 77.16 37.88 77.88 37.88 78.8V80.44C37.88 81.36 37.16 82.08 36.24 82.08C35.32 82.08 34.6 81.36 34.6 80.44V78.8C34.6 77.88 35.32 77.16 36.24 77.16ZM101.64 80.8C102.12 80.04 103.12 79.8 103.88 80.28L105.28 81.12C106.04 81.6 106.28 82.6 105.84 83.36C105.36 84.12 104.36 84.36 103.6 83.88L102.2 83.04C101.44 82.56 101.2 81.56 101.64 80.8ZM107.24 84.24C107.72 83.48 108.72 83.24 109.48 83.72L110.88 84.56C111.64 85.04 111.88 86.04 111.44 86.8C110.96 87.56 109.96 87.8 109.2 87.32L107.8 86.48C107.04 86 106.8 85 107.24 84.24ZM36.24 83.72C37.16 83.72 37.88 84.44 37.88 85.36V87C37.88 87.92 37.16 88.64 36.24 88.64C35.32 88.64 34.6 87.92 34.6 87V85.36C34.6 84.44 35.32 83.72 36.24 83.72ZM112.84 87.64C113.32 86.88 114.32 86.64 115.08 87.12L116.48 87.96C117.24 88.44 117.48 89.44 117.04 90.2C116.56 90.96 115.56 91.2 114.8 90.72L113.4 89.88C112.64 89.4 112.4 88.4 112.84 87.64ZM118.44 91.08C118.92 90.32 119.92 90.08 120.68 90.56L122.08 91.4C122.84 91.88 123.08 92.88 122.64 93.64C122.16 94.4 121.16 94.64 120.4 94.16L119 93.32C118.24 92.84 118 91.84 118.44 91.08ZM36.24 90.28C37.16 90.28 37.88 91 37.88 91.92V93.56C37.88 94.48 37.16 95.2 36.24 95.2C35.32 95.2 34.6 94.48 34.6 93.56V91.92C34.6 91 35.32 90.28 36.24 90.28ZM124 94.52C124.48 93.76 125.48 93.52 126.24 94L127.64 94.84C128.4 95.32 128.64 96.32 128.2 97.08C127.72 97.84 126.72 98.08 125.96 97.6L124.56 96.76C123.8 96.28 123.56 95.28 124 94.52ZM129.6 97.96C130.08 97.2 131.08 96.96 131.84 97.44L133.24 98.28C134 98.76 134.24 99.76 133.8 100.52C133.32 101.28 132.32 101.52 131.56 101.04L130.16 100.2C129.4 99.72 129.16 98.72 129.6 97.96ZM36.24 96.84C37.16 96.84 37.88 97.56 37.88 98.48V100.12C37.88 101.04 37.16 101.76 36.24 101.76C35.32 101.76 34.6 101.04 34.6 100.12V98.48C34.6 97.56 35.32 96.84 36.24 96.84ZM134.52 101.76C135.44 101.76 136.16 102.48 136.16 103.4V105.04C136.16 105.96 135.44 106.68 134.52 106.68C133.6 106.68 132.88 105.96 132.88 105.04V103.4C132.88 102.48 133.6 101.76 134.52 101.76ZM36.24 103.36C37.16 103.36 37.88 104.08 37.88 105V106.64C37.88 107.56 37.16 108.28 36.24 108.28C35.32 108.28 34.6 107.56 34.6 106.64V105C34.6 104.08 35.32 103.36 36.24 103.36ZM134.52 108.28C135.44 108.28 136.16 109 136.16 109.92V111.56C136.16 112.48 135.44 113.2 134.52 113.2C133.6 113.2 132.88 112.48 132.88 111.56V109.92C132.88 109 133.6 108.28 134.52 108.28ZM35.88 110.12C36.36 109.36 37.36 109.12 38.12 109.6L39.52 110.44C40.28 110.92 40.52 111.92 40.08 112.68C39.64 113.44 38.6 113.68 37.84 113.2L36.44 112.36C35.68 111.88 35.44 110.88 35.88 110.12ZM41.48 113.56C41.96 112.8 42.96 112.56 43.72 113.04L45.12 113.88C45.88 114.36 46.12 115.36 45.68 116.12C45.2 116.88 44.2 117.12 43.44 116.64L42.04 115.8C41.28 115.32 41.04 114.32 41.48 113.56ZM134.52 114.88C135.44 114.88 136.16 115.6 136.16 116.52V118.16C136.16 119.08 135.44 119.8 134.52 119.8C133.6 119.8 132.88 119.08 132.88 118.16V116.52C132.88 115.6 133.6 114.88 134.52 114.88ZM47.08 117C47.56 116.24 48.56 116 49.32 116.48L50.72 117.32C51.48 117.8 51.72 118.8 51.28 119.56C50.8 120.32 49.8 120.56 49.04 120.08L47.64 119.24C46.88 118.76 46.64 117.76 47.08 117ZM52.68 120.44C53.16 119.68 54.16 119.44 54.92 119.92L56.32 120.76C57.08 121.24 57.32 122.24 56.88 123C56.4 123.76 55.4 124 54.64 123.52L53.24 122.68C52.48 122.2 52.24 121.2 52.68 120.44ZM134.52 121.44C135.44 121.44 136.16 122.16 136.16 123.08V124.72C136.16 125.64 135.44 126.36 134.52 126.36C133.6 126.36 132.88 125.64 132.88 124.72V123.08C132.88 122.16 133.6 121.44 134.52 121.44ZM58.28 123.88C58.76 123.12 59.76 122.88 60.52 123.36L61.92 124.2C62.68 124.68 62.92 125.68 62.48 126.44C62 127.2 61 127.44 60.24 126.96L58.84 126.12C58.08 125.64 57.84 124.64 58.28 123.88ZM63.88 127.32C64.36 126.56 65.36 126.32 66.12 126.8L67.52 127.64C68.28 128.12 68.52 129.12 68.08 129.88C67.64 130.64 66.6 130.88 65.84 130.4L64.44 129.56C63.68 129.08 63.44 128.08 63.88 127.32ZM134.52 128C135.44 128 136.16 128.72 136.16 129.64V131.28C136.16 132.2 135.44 132.92 134.52 132.92C133.6 132.92 132.88 132.2 132.88 131.28V129.64C132.88 128.72 133.6 128 134.52 128ZM69.44 130.72C69.92 129.96 70.92 129.72 71.68 130.2L73.08 131.04C73.84 131.52 74.08 132.52 73.64 133.28C73.16 134.04 72.16 134.28 71.4 133.8L70 132.96C69.24 132.48 69 131.48 69.44 130.72ZM75.04 134.16C75.52 133.4 76.52 133.16 77.28 133.64L78.68 134.48C79.44 134.96 79.68 135.96 79.24 136.72C78.8 137.48 77.76 137.72 77 137.24L75.6 136.4C74.84 135.92 74.6 134.92 75.04 134.16ZM134.52 134.56C135.44 134.56 136.16 135.28 136.16 136.2V137.84C136.16 138.76 135.44 139.48 134.52 139.48C133.6 139.48 132.88 138.76 132.88 137.84V136.2C132.88 135.28 133.6 134.56 134.52 134.56ZM80.64 137.6C81.12 136.84 82.12 136.6 82.88 137.08L84.28 137.92C85.04 138.4 85.28 139.4 84.84 140.16C84.36 140.92 83.36 141.16 82.6 140.68L81.2 139.84C80.44 139.36 80.2 138.36 80.64 137.6ZM86.24 141.04C86.72 140.28 87.72 140.04 88.48 140.52L89.88 141.36C90.64 141.84 90.88 142.84 90.44 143.6C89.96 144.36 88.96 144.6 88.2 144.12L86.8 143.28C86.04 142.8 85.8 141.8 86.24 141.04ZM134.52 141.12C135.44 141.12 136.16 141.84 136.16 142.76V144.4C136.16 145.32 135.44 146.04 134.52 146.04C133.6 146.04 132.88 145.32 132.88 144.4V142.76C132.88 141.84 133.6 141.12 134.52 141.12ZM91.84 144.44C92.32 143.68 93.32 143.44 94.08 143.92L95.48 144.76C96.24 145.24 96.48 146.24 96.04 147C95.56 147.76 94.56 148 93.8 147.52L92.4 146.68C91.64 146.2 91.4 145.2 91.84 144.44ZM97.44 147.88C97.92 147.12 98.92 146.88 99.68 147.36L101.08 148.2C101.84 148.68 102.08 149.68 101.64 150.44C101.16 151.2 100.16 151.44 99.4 150.96L98 150.12C97.24 149.64 97 148.64 97.44 147.88ZM134.52 147.68C135.44 147.68 136.16 148.4 136.16 149.32V150.96C136.16 151.88 135.44 152.6 134.52 152.6C133.6 152.6 132.88 151.88 132.88 150.96V149.32C132.88 148.4 133.6 147.68 134.52 147.68ZM103.04 151.32C103.52 150.56 104.52 150.32 105.28 150.8L106.68 151.64C107.44 152.12 107.68 153.12 107.24 153.88C106.76 154.64 105.76 154.88 105 154.4L103.6 153.56C102.84 153.08 102.6 152.08 103.04 151.32ZM108.64 154.76C109.12 154 110.12 153.76 110.88 154.24L112.28 155.08C113.04 155.56 113.28 156.56 112.84 157.32C112.36 158.08 111.36 158.32 110.6 157.84L109.2 157C108.44 156.52 108.2 155.52 108.64 154.76ZM134.56 154.24C135.48 154.24 136.2 154.96 136.2 155.88V157.52C136.2 158.44 135.48 159.16 134.56 159.16C133.64 159.16 132.92 158.44 132.92 157.52V155.88C132.92 154.96 133.64 154.24 134.56 154.24ZM114.24 158.16C114.72 157.4 115.72 157.16 116.48 157.64L117.88 158.48C118.64 158.96 118.88 159.96 118.44 160.72C117.96 161.48 116.96 161.72 116.2 161.24L114.8 160.4C114.04 159.92 113.8 158.92 114.24 158.16ZM119.84 161.6C120.32 160.84 121.32 160.6 122.08 161.08L123.48 161.92C124.24 162.4 124.48 163.4 124.04 164.16C123.56 164.92 122.56 165.16 121.8 164.68L120.4 163.84C119.64 163.36 119.4 162.36 119.84 161.6ZM134.56 160.8C135.48 160.8 136.2 161.52 136.2 162.44V164.08C136.2 165 135.48 165.72 134.56 165.72C133.64 165.72 132.92 165 132.92 164.08V162.44C132.92 161.52 133.64 160.8 134.56 160.8ZM125.44 165.04C125.92 164.28 126.92 164.04 127.68 164.52L129.08 165.36C129.84 165.84 130.08 166.84 129.64 167.6C129.16 168.36 128.16 168.6 127.4 168.12L126 167.28C125.24 166.8 125 165.8 125.44 165.04ZM133.32 167.92C133.08 168.24 132.96 168.6 132.96 168.96V170.6C132.96 171 133.08 171.36 133.32 171.64L133.4 171.72H133.52C134.16 171.88 134.88 171.6 135.24 171C135.72 170.24 135.48 169.24 134.68 168.76L133.28 167.92H133.32ZM134.56 167.32C135.48 167.32 136.2 168.04 136.2 168.96V170.6C136.2 171.52 135.48 172.24 134.56 172.24C134.12 172.24 133.68 172.04 133.4 171.76L133.36 171.72C133.32 171.72 133.24 171.68 133.2 171.64L133.04 171.56L131.64 170.72C130.88 170.24 130.64 169.24 131.08 168.48C131.52 167.72 132.56 167.48 133.32 167.96L133.4 167.88C133.64 167.64 134 167.44 134.36 167.4H134.56V167.32ZM196.8 131.56V62.92L101.8 4.76003V71.4H98.52V1.48003C98.64 0.320033 100 -0.359967 101 0.280033L199.28 60.44L199.44 60.56C199.84 60.88 200.04 61.32 200.04 61.84V131.4H199.84V138.88L99.92 200.04L0 138.88V131.4H3.28V137.04L99.92 196.2L196.56 137.04V131.4H196.76L196.8 131.56Z" fill="white" fill-opacity="0.5"/>
    <path d="M98.36 4.60003L3.27997 62.84V128.68L98.36 70.44V4.60003ZM164 121.36C164 121.36 164.12 121.36 164.16 121.36H164C164 121.36 164.12 121.36 164.2 121.36C164.2 121.36 164.24 121.36 164.28 121.36C164.52 121.36 164.72 121.48 164.88 121.6C164.96 121.64 165.04 121.72 165.12 121.76C165.12 121.76 165.12 121.76 165.16 121.8C165.16 121.8 165.28 121.96 165.32 122.04C165.32 122.04 165.32 122.08 165.36 122.12C165.36 122.12 165.4 122.24 165.44 122.28L165.36 122.12C165.36 122.12 165.44 122.24 165.48 122.32C165.48 122.36 165.48 122.4 165.52 122.48V122.52C165.52 122.56 165.52 122.6 165.52 122.64C165.52 122.64 165.52 122.68 165.52 122.72C165.52 122.72 165.52 122.72 165.52 122.76V122.84C165.52 122.84 165.52 122.88 165.52 122.92V137.96C165.52 138.88 164.8 139.6 163.88 139.6C163.04 139.6 162.36 138.96 162.24 138.16V137.96V125.88L120.68 150.84C119.92 151.32 118.88 151.04 118.44 150.28C118 149.56 118.2 148.64 118.84 148.12L119 148L158 124.6H138.92C138.08 124.6 137.4 123.96 137.28 123.16V122.96C137.28 122.12 137.92 121.44 138.72 121.32H138.92H163.88L164 121.36ZM84.12 171.2V171.12C84.12 171.12 84.0399 171.08 84.0399 171.04C84.0399 171.04 84 170.92 83.96 170.88L84.0399 171.04C84.0399 171.04 83.96 170.88 83.92 170.84C83.92 170.8 83.92 170.76 83.88 170.72V170.68C83.88 170.68 83.88 170.6 83.88 170.56V170.48C83.88 170.48 83.88 170.36 83.88 170.32V155.28C83.88 154.36 84.6 153.64 85.52 153.64C86.36 153.64 87.0399 154.28 87.1599 155.08V155.28V167.36L100 159.68C100.76 159.2 101.8 159.48 102.24 160.24C102.68 160.96 102.48 161.88 101.84 162.4L101.68 162.52L91.44 168.68H110.52C111.36 168.68 112.04 169.32 112.16 170.12V170.32C112.16 171.16 111.52 171.84 110.72 171.96H110.52H85.56C85.52 171.96 85.44 171.96 85.4 171.96H85.56C85.56 171.96 85.44 171.96 85.36 171.96C85.36 171.96 85.28 171.96 85.24 171.96C85.24 171.96 85.1999 171.96 85.1599 171.96C85.1599 171.96 85.16 171.96 85.12 171.96C84.96 171.92 84.8 171.84 84.68 171.76C84.6 171.72 84.52 171.64 84.44 171.6C84.44 171.6 84.44 171.6 84.4 171.56C84.4 171.56 84.32 171.44 84.28 171.4L84.12 171.2ZM100 73.28L4.79996 131.6L100 189.92L195.2 131.6L100 73.28ZM101.64 1.48003V1.68003V70.44L199.2 130.2C200.2 130.8 200.24 132.16 199.36 132.88L199.2 133L100.84 193.24C100.32 193.56 99.64 193.56 99.12 193.24L0.759979 133C0.239979 132.68 -0.0400391 132.16 -0.0400391 131.6V61.92C-0.0400391 61.44 0.199967 60.96 0.559967 60.64L0.719971 60.52L99.08 0.280033C100.12 -0.359967 101.44 0.320033 101.56 1.48003H101.64Z" fill="white"/>
  </g>
</svg>