<svg width="1280" height="642" viewBox="0 0 1280 642" fill="none" xmlns="http://www.w3.org/2000/svg">
<g clip-path="url(#clip0_72_878)">
<rect width="1280" height="642" fill="#011739"/>
<path d="M640.801 0L320.801 160.001V480.001L640.801 320.001V0Z" fill="url(#paint0_linear_72_878)"/>
<path d="M0.800781 0L320.801 160.001V480.001L0.800781 320.001V0Z" fill="url(#paint1_linear_72_878)"/>
<path d="M1281.6 320L641.6 640V320L1281.6 0V320Z" fill="url(#paint2_linear_72_878)"/>
<g opacity="0.5">
<line y1="-1" x2="160" y2="-1" transform="matrix(4.37114e-08 1 1 -4.37114e-08 640.6 160.402)" stroke="url(#paint3_linear_72_878)" stroke-width="2"/>
<line y1="-1" x2="160" y2="-1" transform="matrix(4.37114e-08 1 1 -4.37114e-08 605.044 178.182)" stroke="url(#paint4_linear_72_878)" stroke-width="2"/>
<line y1="-1" x2="160" y2="-1" transform="matrix(4.37114e-08 1 1 -4.37114e-08 569.49 195.958)" stroke="url(#paint5_linear_72_878)" stroke-width="2"/>
<line y1="-1" x2="160" y2="-1" transform="matrix(4.37114e-08 1 1 -4.37114e-08 533.933 213.738)" stroke="url(#paint6_linear_72_878)" stroke-width="2"/>
<line y1="-1" x2="160" y2="-1" transform="matrix(4.37114e-08 1 1 -4.37114e-08 498.377 231.513)" stroke="url(#paint7_linear_72_878)" stroke-width="2"/>
<line y1="-1" x2="160" y2="-1" transform="matrix(4.37114e-08 1 1 -4.37114e-08 462.822 249.293)" stroke="url(#paint8_linear_72_878)" stroke-width="2"/>
<line y1="-1" x2="160" y2="-1" transform="matrix(4.37114e-08 1 1 -4.37114e-08 427.268 267.069)" stroke="url(#paint9_linear_72_878)" stroke-width="2"/>
<line y1="-1" x2="160" y2="-1" transform="matrix(4.37114e-08 1 1 -4.37114e-08 391.711 284.849)" stroke="url(#paint10_linear_72_878)" stroke-width="2"/>
<line y1="-1" x2="160" y2="-1" transform="matrix(4.37114e-08 1 1 -4.37114e-08 356.155 302.621)" stroke="url(#paint11_linear_72_878)" stroke-width="2"/>
<line y1="-1" x2="160" y2="-1" transform="matrix(4.37114e-08 1 1 -4.37114e-08 320.6 320.4)" stroke="url(#paint12_linear_72_878)" stroke-width="2"/>
</g>
<g opacity="0.5">
<line x1="675.554" y1="178" x2="675.554" y2="338" stroke="url(#paint13_linear_72_878)" stroke-width="2"/>
<line x1="711.111" y1="195.78" x2="711.111" y2="355.779" stroke="url(#paint14_linear_72_878)" stroke-width="2"/>
<line x1="746.667" y1="213.556" x2="746.667" y2="373.555" stroke="url(#paint15_linear_72_878)" stroke-width="2"/>
<line x1="782.222" y1="231.335" x2="782.222" y2="391.335" stroke="url(#paint16_linear_72_878)" stroke-width="2"/>
<line x1="817.776" y1="249.111" x2="817.776" y2="409.111" stroke="url(#paint17_linear_72_878)" stroke-width="2"/>
<line x1="853.333" y1="266.891" x2="853.333" y2="426.89" stroke="url(#paint18_linear_72_878)" stroke-width="2"/>
<line x1="888.889" y1="284.663" x2="888.889" y2="444.662" stroke="url(#paint19_linear_72_878)" stroke-width="2"/>
<line x1="924.845" y1="302.444" x2="924.845" y2="462.444" stroke="url(#paint20_linear_72_878)" stroke-width="2"/>
<line x1="960.4" y1="320.224" x2="960.4" y2="480.224" stroke="url(#paint21_linear_72_878)" stroke-width="2"/>
<line x1="995.954" y1="338" x2="995.954" y2="498" stroke="url(#paint22_linear_72_878)" stroke-width="2"/>
<line x1="1031.51" y1="355.78" x2="1031.51" y2="515.779" stroke="url(#paint23_linear_72_878)" stroke-width="2"/>
<line x1="1067.07" y1="373.555" x2="1067.07" y2="533.555" stroke="url(#paint24_linear_72_878)" stroke-width="2"/>
<line x1="1102.62" y1="391.335" x2="1102.62" y2="551.335" stroke="url(#paint25_linear_72_878)" stroke-width="2"/>
<line x1="1138.18" y1="409.111" x2="1138.18" y2="569.111" stroke="url(#paint26_linear_72_878)" stroke-width="2"/>
<line x1="1173.73" y1="426.891" x2="1173.73" y2="586.89" stroke="url(#paint27_linear_72_878)" stroke-width="2"/>
<line x1="1209.29" y1="444.663" x2="1209.29" y2="604.662" stroke="url(#paint28_linear_72_878)" stroke-width="2"/>
<line x1="1244.84" y1="462.442" x2="1244.84" y2="622.442" stroke="url(#paint29_linear_72_878)" stroke-width="2"/>
</g>
<g opacity="0.5">
<line y1="-1" x2="160" y2="-1" transform="matrix(4.37114e-08 1 1 -4.37114e-08 284 160.402)" stroke="url(#paint30_linear_72_878)" stroke-width="2"/>
<line y1="-1" x2="160" y2="-1" transform="matrix(4.37114e-08 1 1 -4.37114e-08 248.444 178.182)" stroke="url(#paint31_linear_72_878)" stroke-width="2"/>
<line y1="-1" x2="160" y2="-1" transform="matrix(4.37114e-08 1 1 -4.37114e-08 212.891 195.958)" stroke="url(#paint32_linear_72_878)" stroke-width="2"/>
<line y1="-1" x2="160" y2="-1" transform="matrix(4.37114e-08 1 1 -4.37114e-08 177.333 213.738)" stroke="url(#paint33_linear_72_878)" stroke-width="2"/>
<line y1="-1" x2="160" y2="-1" transform="matrix(4.37114e-08 1 1 -4.37114e-08 141.778 231.513)" stroke="url(#paint34_linear_72_878)" stroke-width="2"/>
<line y1="-1" x2="160" y2="-1" transform="matrix(4.37114e-08 1 1 -4.37114e-08 106.222 249.293)" stroke="url(#paint35_linear_72_878)" stroke-width="2"/>
<line y1="-1" x2="160" y2="-1" transform="matrix(4.37114e-08 1 1 -4.37114e-08 70.6685 267.069)" stroke="url(#paint36_linear_72_878)" stroke-width="2"/>
<line y1="-1" x2="160" y2="-1" transform="matrix(4.37114e-08 1 1 -4.37114e-08 35.1113 284.849)" stroke="url(#paint37_linear_72_878)" stroke-width="2"/>
</g>
</g>
<defs>
<linearGradient id="paint0_linear_72_878" x1="480.801" y1="0" x2="480.801" y2="480.001" gradientUnits="userSpaceOnUse">
<stop stop-color="#003C97"/>
<stop offset="1" stop-color="#001E4D"/>
</linearGradient>
<linearGradient id="paint1_linear_72_878" x1="160.801" y1="0" x2="160.801" y2="480.001" gradientUnits="userSpaceOnUse">
<stop stop-color="#003C97"/>
<stop offset="1" stop-color="#001E4D"/>
</linearGradient>
<linearGradient id="paint2_linear_72_878" x1="961.6" y1="0" x2="961.6" y2="640" gradientUnits="userSpaceOnUse">
<stop stop-color="#003C97"/>
<stop offset="1" stop-color="#001E4D"/>
</linearGradient>
<linearGradient id="paint3_linear_72_878" x1="0" y1="0.5" x2="160" y2="0.5" gradientUnits="userSpaceOnUse">
<stop stop-color="white"/>
<stop offset="1" stop-color="white" stop-opacity="0"/>
</linearGradient>
<linearGradient id="paint4_linear_72_878" x1="0" y1="0.5" x2="160" y2="0.5" gradientUnits="userSpaceOnUse">
<stop stop-color="white"/>
<stop offset="1" stop-color="white" stop-opacity="0"/>
</linearGradient>
<linearGradient id="paint5_linear_72_878" x1="0" y1="0.5" x2="160" y2="0.5" gradientUnits="userSpaceOnUse">
<stop stop-color="white"/>
<stop offset="1" stop-color="white" stop-opacity="0"/>
</linearGradient>
<linearGradient id="paint6_linear_72_878" x1="0" y1="0.5" x2="160" y2="0.5" gradientUnits="userSpaceOnUse">
<stop stop-color="white"/>
<stop offset="1" stop-color="white" stop-opacity="0"/>
</linearGradient>
<linearGradient id="paint7_linear_72_878" x1="0" y1="0.5" x2="160" y2="0.5" gradientUnits="userSpaceOnUse">
<stop stop-color="white"/>
<stop offset="1" stop-color="white" stop-opacity="0"/>
</linearGradient>
<linearGradient id="paint8_linear_72_878" x1="0" y1="0.5" x2="160" y2="0.5" gradientUnits="userSpaceOnUse">
<stop stop-color="white"/>
<stop offset="1" stop-color="white" stop-opacity="0"/>
</linearGradient>
<linearGradient id="paint9_linear_72_878" x1="0" y1="0.5" x2="160" y2="0.5" gradientUnits="userSpaceOnUse">
<stop stop-color="white"/>
<stop offset="1" stop-color="white" stop-opacity="0"/>
</linearGradient>
<linearGradient id="paint10_linear_72_878" x1="0" y1="0.5" x2="160" y2="0.5" gradientUnits="userSpaceOnUse">
<stop stop-color="white"/>
<stop offset="1" stop-color="white" stop-opacity="0"/>
</linearGradient>
<linearGradient id="paint11_linear_72_878" x1="0" y1="0.5" x2="160" y2="0.5" gradientUnits="userSpaceOnUse">
<stop stop-color="white"/>
<stop offset="1" stop-color="white" stop-opacity="0"/>
</linearGradient>
<linearGradient id="paint12_linear_72_878" x1="0" y1="0.5" x2="160" y2="0.5" gradientUnits="userSpaceOnUse">
<stop stop-color="white"/>
<stop offset="1" stop-color="white" stop-opacity="0"/>
</linearGradient>
<linearGradient id="paint13_linear_72_878" x1="674.054" y1="178" x2="674.054" y2="338" gradientUnits="userSpaceOnUse">
<stop stop-color="white"/>
<stop offset="1" stop-color="white" stop-opacity="0"/>
</linearGradient>
<linearGradient id="paint14_linear_72_878" x1="709.611" y1="195.78" x2="709.611" y2="355.779" gradientUnits="userSpaceOnUse">
<stop stop-color="white"/>
<stop offset="1" stop-color="white" stop-opacity="0"/>
</linearGradient>
<linearGradient id="paint15_linear_72_878" x1="745.167" y1="213.556" x2="745.167" y2="373.555" gradientUnits="userSpaceOnUse">
<stop stop-color="white"/>
<stop offset="1" stop-color="white" stop-opacity="0"/>
</linearGradient>
<linearGradient id="paint16_linear_72_878" x1="780.722" y1="231.335" x2="780.722" y2="391.335" gradientUnits="userSpaceOnUse">
<stop stop-color="white"/>
<stop offset="1" stop-color="white" stop-opacity="0"/>
</linearGradient>
<linearGradient id="paint17_linear_72_878" x1="816.276" y1="249.111" x2="816.276" y2="409.111" gradientUnits="userSpaceOnUse">
<stop stop-color="white"/>
<stop offset="1" stop-color="white" stop-opacity="0"/>
</linearGradient>
<linearGradient id="paint18_linear_72_878" x1="851.833" y1="266.891" x2="851.833" y2="426.89" gradientUnits="userSpaceOnUse">
<stop stop-color="white"/>
<stop offset="1" stop-color="white" stop-opacity="0"/>
</linearGradient>
<linearGradient id="paint19_linear_72_878" x1="887.389" y1="284.663" x2="887.389" y2="444.662" gradientUnits="userSpaceOnUse">
<stop stop-color="white"/>
<stop offset="1" stop-color="white" stop-opacity="0"/>
</linearGradient>
<linearGradient id="paint20_linear_72_878" x1="923.345" y1="302.444" x2="923.345" y2="462.444" gradientUnits="userSpaceOnUse">
<stop stop-color="white"/>
<stop offset="1" stop-color="white" stop-opacity="0"/>
</linearGradient>
<linearGradient id="paint21_linear_72_878" x1="958.9" y1="320.224" x2="958.9" y2="480.224" gradientUnits="userSpaceOnUse">
<stop stop-color="white"/>
<stop offset="1" stop-color="white" stop-opacity="0"/>
</linearGradient>
<linearGradient id="paint22_linear_72_878" x1="994.454" y1="338" x2="994.454" y2="498" gradientUnits="userSpaceOnUse">
<stop stop-color="white"/>
<stop offset="1" stop-color="white" stop-opacity="0"/>
</linearGradient>
<linearGradient id="paint23_linear_72_878" x1="1030.01" y1="355.78" x2="1030.01" y2="515.779" gradientUnits="userSpaceOnUse">
<stop stop-color="white"/>
<stop offset="1" stop-color="white" stop-opacity="0"/>
</linearGradient>
<linearGradient id="paint24_linear_72_878" x1="1065.57" y1="373.555" x2="1065.57" y2="533.555" gradientUnits="userSpaceOnUse">
<stop stop-color="white"/>
<stop offset="1" stop-color="white" stop-opacity="0"/>
</linearGradient>
<linearGradient id="paint25_linear_72_878" x1="1101.12" y1="391.335" x2="1101.12" y2="551.335" gradientUnits="userSpaceOnUse">
<stop stop-color="white"/>
<stop offset="1" stop-color="white" stop-opacity="0"/>
</linearGradient>
<linearGradient id="paint26_linear_72_878" x1="1136.68" y1="409.111" x2="1136.68" y2="569.111" gradientUnits="userSpaceOnUse">
<stop stop-color="white"/>
<stop offset="1" stop-color="white" stop-opacity="0"/>
</linearGradient>
<linearGradient id="paint27_linear_72_878" x1="1172.23" y1="426.891" x2="1172.23" y2="586.89" gradientUnits="userSpaceOnUse">
<stop stop-color="white"/>
<stop offset="1" stop-color="white" stop-opacity="0"/>
</linearGradient>
<linearGradient id="paint28_linear_72_878" x1="1207.79" y1="444.663" x2="1207.79" y2="604.662" gradientUnits="userSpaceOnUse">
<stop stop-color="white"/>
<stop offset="1" stop-color="white" stop-opacity="0"/>
</linearGradient>
<linearGradient id="paint29_linear_72_878" x1="1243.34" y1="462.442" x2="1243.34" y2="622.442" gradientUnits="userSpaceOnUse">
<stop stop-color="white"/>
<stop offset="1" stop-color="white" stop-opacity="0"/>
</linearGradient>
<linearGradient id="paint30_linear_72_878" x1="0" y1="0.5" x2="160" y2="0.5" gradientUnits="userSpaceOnUse">
<stop stop-color="white"/>
<stop offset="1" stop-color="white" stop-opacity="0"/>
</linearGradient>
<linearGradient id="paint31_linear_72_878" x1="0" y1="0.5" x2="160" y2="0.5" gradientUnits="userSpaceOnUse">
<stop stop-color="white"/>
<stop offset="1" stop-color="white" stop-opacity="0"/>
</linearGradient>
<linearGradient id="paint32_linear_72_878" x1="0" y1="0.5" x2="160" y2="0.5" gradientUnits="userSpaceOnUse">
<stop stop-color="white"/>
<stop offset="1" stop-color="white" stop-opacity="0"/>
</linearGradient>
<linearGradient id="paint33_linear_72_878" x1="0" y1="0.5" x2="160" y2="0.5" gradientUnits="userSpaceOnUse">
<stop stop-color="white"/>
<stop offset="1" stop-color="white" stop-opacity="0"/>
</linearGradient>
<linearGradient id="paint34_linear_72_878" x1="0" y1="0.5" x2="160" y2="0.5" gradientUnits="userSpaceOnUse">
<stop stop-color="white"/>
<stop offset="1" stop-color="white" stop-opacity="0"/>
</linearGradient>
<linearGradient id="paint35_linear_72_878" x1="0" y1="0.5" x2="160" y2="0.5" gradientUnits="userSpaceOnUse">
<stop stop-color="white"/>
<stop offset="1" stop-color="white" stop-opacity="0"/>
</linearGradient>
<linearGradient id="paint36_linear_72_878" x1="0" y1="0.5" x2="160" y2="0.5" gradientUnits="userSpaceOnUse">
<stop stop-color="white"/>
<stop offset="1" stop-color="white" stop-opacity="0"/>
</linearGradient>
<linearGradient id="paint37_linear_72_878" x1="0" y1="0.5" x2="160" y2="0.5" gradientUnits="userSpaceOnUse">
<stop stop-color="white"/>
<stop offset="1" stop-color="white" stop-opacity="0"/>
</linearGradient>
<clipPath id="clip0_72_878">
<rect width="1280" height="642" fill="white"/>
</clipPath>
</defs>
</svg>
