<svg xmlns="http://www.w3.org/2000/svg" width="20" height="20" viewBox="0 0 20 20" fill="none">
  <g clip-path="url(#clip0_20_4936)">
    <mask id="mask0_20_4936" style="mask-type:alpha" maskUnits="userSpaceOnUse" x="0" y="0" width="20" height="20">
      <rect width="20" height="20" fill="#D9D9D9"/>
    </mask>
    <g mask="url(#mask0_20_4936)">
      <path d="M15.8958 16.9791C14.2152 16.8541 12.6215 16.4409 11.1145 15.7395C9.60756 15.0382 8.25687 14.0902 7.06242 12.8958C5.86798 11.7013 4.92353 10.3507 4.22909 8.84371C3.53465 7.33676 3.12492 5.74301 2.99992 4.06246C2.97215 3.77079 3.05895 3.51732 3.26034 3.30204C3.46173 3.08676 3.70826 2.97913 3.99992 2.97913H6.83326C7.06937 2.97913 7.27423 3.05204 7.44784 3.19788C7.62145 3.34371 7.73604 3.52774 7.79159 3.74996L8.29159 5.97913C8.31937 6.15968 8.30895 6.33329 8.26034 6.49996C8.21173 6.66663 8.13187 6.80551 8.02076 6.91663L5.99992 8.95829C6.2777 9.48607 6.59715 9.99301 6.95826 10.4791C7.31937 10.9652 7.72215 11.4236 8.16659 11.8541C8.58326 12.2708 9.0277 12.6562 9.49992 13.0104C9.97215 13.3645 10.4721 13.6805 10.9999 13.9583L13.0624 11.9583C13.1735 11.8472 13.3124 11.7673 13.4791 11.7187C13.6458 11.6701 13.8194 11.6597 13.9999 11.6875L16.2291 12.1666C16.4652 12.2361 16.6527 12.3576 16.7916 12.5312C16.9305 12.7048 16.9999 12.9097 16.9999 13.1458V15.9791C16.9999 16.2708 16.8888 16.5173 16.6666 16.7187C16.4444 16.9201 16.1874 17.0069 15.8958 16.9791Z" fill="white"/>
    </g>
  </g>
  <defs>
    <clipPath id="clip0_20_4936">
      <rect width="20" height="20" fill="white"/>
    </clipPath>
  </defs>
</svg>