<svg xmlns="http://www.w3.org/2000/svg" width="24" height="24" viewBox="0 0 24 24" fill="none">
  <path d="M12.0782 2.99805C12.0867 2.99806 12.0959 2.99809 12.1058 2.99811L12.212 2.99844C13.4447 3.00297 19.6924 3.04826 21.3768 3.50112C22.4095 3.77809 23.2226 4.59432 23.4986 5.63042C23.6506 6.19966 23.7565 6.95626 23.8303 7.73439L23.8446 7.89026C23.8562 8.0203 23.8669 8.15064 23.8769 8.2805L23.8884 8.43605C23.987 9.80721 23.9985 11.0903 23.9998 11.371L24 11.4089C24 11.412 24 11.4171 24 11.4171V11.4383C24 11.4383 24 11.4434 24 11.4465L23.9998 11.4844C23.9984 11.7757 23.9861 13.1466 23.8769 14.575L23.8646 14.731L23.8515 14.8872C23.7772 15.7461 23.6657 16.5989 23.4986 17.225C23.2226 18.2611 22.4095 19.0775 21.3768 19.3543C19.6362 19.8224 13.0231 19.8552 12.1058 19.8575L12.0352 19.8577C12.0294 19.8577 12.0243 19.8577 12.0199 19.8577L11.9911 19.8577C11.9911 19.8577 11.9845 19.8577 11.9801 19.8577L11.8942 19.8575C11.4306 19.8564 9.51231 19.8474 7.50341 19.7784L7.24657 19.7693C7.20371 19.7677 7.16084 19.7661 7.11797 19.7645L6.86083 19.7543L6.60429 19.7434C4.94003 19.6704 3.35325 19.5506 2.6233 19.3543C1.59067 19.0775 0.777522 18.2611 0.501534 17.225C0.334334 16.5989 0.222868 15.7461 0.148557 14.8872L0.135451 14.731L0.12314 14.575C0.0178199 13.1985 0.00253152 11.8755 0.000312239 11.5204L4.70427e-05 11.4696C2.84324e-05 11.465 1.29238e-05 11.4608 0 11.4569V11.3985C1.29238e-05 11.3946 2.84324e-05 11.3904 4.70427e-05 11.3859L0.000312239 11.335C0.00232215 11.0134 0.0150516 9.898 0.0956714 8.66787L0.106107 8.51356C0.107906 8.48776 0.109736 8.46192 0.111597 8.43605L0.12314 8.2805C0.133075 8.15064 0.143813 8.0203 0.155416 7.89026L0.169759 7.73439C0.243595 6.95626 0.349534 6.19966 0.501534 5.63042C0.777522 4.59432 1.59067 3.77809 2.6233 3.50112C3.35325 3.30488 4.94003 3.18517 6.60429 3.11215L6.86083 3.10128L7.11797 3.09112C7.16084 3.08949 7.20371 3.08788 7.24657 3.0863L7.50341 3.07717C9.38409 3.01261 11.1853 3.00066 11.788 2.99844L11.8942 2.99811C11.904 2.99809 11.9132 2.99806 11.9218 2.99805H12.0782ZM9.60005 7.81484V15.0406L15.8352 11.4279L9.60005 7.81484Z" fill="white"/>
</svg>