<svg xmlns="http://www.w3.org/2000/svg" width="56" height="56" viewBox="0 0 56 56" fill="none">
  <rect width="56" height="56" rx="28" fill="white"/>
  <mask id="mask0_20_4926" style="mask-type:alpha" maskUnits="userSpaceOnUse" x="18" y="18" width="20" height="20">
    <rect x="18" y="18" width="20" height="20" fill="#D9D9D9"/>
  </mask>
  <g mask="url(#mask0_20_4926)">
    <path d="M34.5136 35.75C32.623 35.6094 30.83 35.1445 29.1347 34.3555C27.4394 33.5664 25.9199 32.5 24.5761 31.1562C23.2324 29.8125 22.1699 28.293 21.3886 26.5977C20.6074 24.9023 20.1464 23.1094 20.0058 21.2188C19.9746 20.8906 20.0722 20.6055 20.2988 20.3633C20.5253 20.1211 20.8027 20 21.1308 20H24.3183C24.5839 20 24.8144 20.082 25.0097 20.2461C25.205 20.4102 25.3339 20.6172 25.3964 20.8672L25.9589 23.375C25.9902 23.5781 25.9785 23.7734 25.9238 23.9609C25.8691 24.1484 25.7792 24.3047 25.6542 24.4297L23.3808 26.7266C23.6933 27.3203 24.0527 27.8906 24.4589 28.4375C24.8652 28.9844 25.3183 29.5 25.8183 29.9844C26.2871 30.4531 26.7871 30.8867 27.3183 31.2852C27.8496 31.6836 28.4121 32.0391 29.0058 32.3516L31.3261 30.1016C31.4511 29.9766 31.6074 29.8867 31.7949 29.832C31.9824 29.7773 32.1777 29.7656 32.3808 29.7969L34.8886 30.3359C35.1542 30.4141 35.3652 30.5508 35.5214 30.7461C35.6777 30.9414 35.7558 31.1719 35.7558 31.4375V34.625C35.7558 34.9531 35.6308 35.2305 35.3808 35.457C35.1308 35.6836 34.8417 35.7812 34.5136 35.75Z" fill="#1C1B1F"/>
  </g>
</svg>